# xmcd
#
# Track frame offsets: 
#        150
#        18015
#        35605
#        49880
#        66435
#        81955
#        102260
#        120510
#        134970
#        148887
#        165250
#        187030
#
# Disc length: 2754 seconds
#
# Revision: 23
# Processed by: cddbd v1.5.2PL0 Copyright (c) Steve Scherf et al.
# Submitted via: ExactAudioCopyFreeDBPlugin 1.0
#
DISCID=ad0ac00c
DTITLE=Tom Waits - Closing Time
DYEAR=1973
DGENRE=Blues
TTITLE0=Ol' '55
TTITLE1=I hope that I don't fall in love with you
TTITLE2=Virginia Avenue
TTITLE3=Old shoes (& picture postcards)
TTITLE4=Midnight lullaby
TTITLE5=Martha
TTITLE6=Rosie
TTITLE7=Lonely
TTITLE8=Ice cream man
TTITLE9=Little trip to heaven (On the wings of your love)
TTITLE10=Grapefruit moon
TTITLE11=Closing time
EXTD=YEAR: 1973
EXTT0=
EXTT1=
EXTT2=
EXTT3=
EXTT4=
EXTT5=
EXTT6=
EXTT7=
EXTT8=
EXTT9=
EXTT10=
EXTT11=
PLAYORDER=
